<svg width="156" height="56" viewBox="0 0 156 56" fill="none" xmlns="http://www.w3.org/2000/svg">
<path d="M130.459 44.1324C131.689 44.1324 132.724 44.6839 133.274 45.6255L133.434 44.2974H134.603V52.149C134.603 54.4345 133.064 55.9127 130.719 55.9127C128.728 55.9127 127.319 54.825 127.014 53.1558H128.389C128.664 54.2431 129.569 54.7945 130.719 54.7945C132.369 54.7945 133.294 53.8223 133.294 52.3599V50.8013C132.809 51.7584 131.708 52.3257 130.443 52.3257C128.388 52.3256 126.784 50.817 126.784 48.2369C126.784 45.6566 128.369 44.1324 130.459 44.1324ZM152.52 44.1363C154.446 44.1363 155.84 45.0632 155.855 46.7017H154.545C154.51 45.7103 153.686 45.1784 152.54 45.1783C151.394 45.1783 150.66 45.6645 150.66 46.4761C150.66 47.1726 151.115 47.5133 152.135 47.6588L153.8 47.9341C155.29 48.1792 156.001 48.8915 156.001 50.1548C156.001 51.778 154.526 52.6695 152.65 52.6695C150.496 52.6695 149.17 51.6629 149.136 50.0894H150.48C150.515 51.0618 151.355 51.6324 152.616 51.6324C153.876 51.6323 154.656 51.1311 154.656 50.2701C154.656 49.5389 154.266 49.1522 153.311 49.022L151.611 48.7457C150.056 48.4853 149.346 47.7391 149.346 46.5064C149.346 45.0631 150.721 44.1363 152.52 44.1363ZM108.012 44.1324C110.487 44.1324 112.172 45.8861 112.172 48.4166C112.172 50.9471 110.487 52.6666 108.012 52.6666C105.536 52.6666 103.867 50.9318 103.867 48.4166C103.867 45.9014 105.536 44.1324 108.012 44.1324ZM121.237 44.1324C123.713 44.1325 125.397 45.8862 125.397 48.4166C125.397 50.947 123.713 52.6665 121.237 52.6666C118.762 52.6666 117.092 50.9318 117.092 48.4166C117.092 45.9014 118.762 44.1324 121.237 44.1324ZM70.9364 44.1363C73.3316 44.1363 74.8719 45.7601 74.8719 48.1949V48.7808L74.868 48.7769H68.2968C68.3275 50.595 69.5118 51.5326 70.9823 51.5328C72.0824 51.5328 73.007 50.9971 73.412 49.9293H74.7723C74.3024 51.5676 72.8926 52.6548 70.952 52.6548C68.5416 52.6548 66.9375 50.9511 66.9374 48.3863C66.9374 45.8214 68.5414 44.1365 70.9364 44.1363ZM143.91 44.1363C146.309 44.1364 147.845 45.7602 147.845 48.1949V48.7769H141.274C141.305 50.5951 142.489 51.5328 143.96 51.5328C145.06 51.5326 145.985 50.9971 146.386 49.9293H147.745C147.275 51.5676 145.865 52.6548 143.925 52.6548C141.514 52.6547 139.91 50.951 139.91 48.3863C139.91 45.8213 141.511 44.1363 143.91 44.1363ZM80.2118 44.1324C82.1372 44.1324 83.5778 45.2049 84.0477 47.0386H82.5887C82.1991 45.9361 81.3275 45.2847 80.2235 45.2847C78.7031 45.2848 77.5682 46.3572 77.5682 48.3824C77.5683 50.4073 78.7183 51.4828 80.2079 51.483C81.3577 51.483 82.2482 50.8172 82.6532 49.6343H84.0624C83.6077 51.4679 82.1676 52.6509 80.2118 52.6509C77.8168 52.6508 76.2128 50.9472 76.2128 48.3824C76.2128 45.8175 77.8167 44.1325 80.2118 44.1324ZM67.3114 42.3336H63.411V52.5054H62.0321V42.3336H58.1317V41.0513H67.3114V42.3336ZM86.9696 45.5074C87.47 44.6307 88.5099 44.1285 89.6903 44.1285C91.2603 44.1286 92.8954 44.9716 92.8954 47.6666L92.8993 47.6705V52.5054H91.5692V47.8961C91.5692 46.1274 90.7291 45.3651 89.4149 45.3804C87.8296 45.3805 86.9696 46.4988 86.9696 48.0416V52.5015H85.6444V40.5611H86.9696V45.5074ZM98.9159 44.1324C100.956 44.1325 102.155 45.4956 102.155 47.5894V52.5054H100.826V47.8658C100.826 46.1622 99.9357 45.3502 98.6102 45.3502C97.0707 45.3502 96.245 46.4532 96.245 48.0611V52.5054H94.9198V44.2974H96.0848L96.2303 45.5611C96.7002 44.6538 97.6552 44.1324 98.9159 44.1324ZM115.277 52.5054H113.952V40.565H115.277V52.5054ZM138.034 52.5054H136.709V44.2974H138.034V52.5054ZM108.012 45.2701C106.342 45.2701 105.227 46.487 105.226 48.4009C105.226 50.3151 106.342 51.5181 108.012 51.5181C109.681 51.5181 110.797 50.2845 110.797 48.4009C110.797 46.5176 109.681 45.2701 108.012 45.2701ZM121.237 45.2701C119.568 45.2701 118.452 46.487 118.452 48.4009C118.452 50.3151 119.572 51.5181 121.237 51.5181C122.906 51.518 124.022 50.2844 124.022 48.4009C124.022 46.5177 122.906 45.2702 121.237 45.2701ZM130.673 45.3004C129.118 45.3004 128.163 46.5183 128.163 48.2525C128.163 49.9865 129.133 51.1734 130.673 51.1734C132.212 51.1734 133.263 50.0359 133.263 48.2711C133.263 46.5025 132.227 45.3004 130.673 45.3004ZM70.9325 45.2242C69.5575 45.2244 68.4729 46.0662 68.3124 47.7847H73.5077C73.4121 46.0813 72.3077 45.2242 70.9325 45.2242ZM143.91 45.2242C142.535 45.2242 141.449 46.066 141.289 47.7847H146.484C146.389 46.0814 145.285 45.2243 143.91 45.2242ZM138.195 42.5289H136.545V40.9703H138.195V42.5289ZM76.0634 29.2632C78.1033 29.2632 79.4286 30.3852 79.4286 32.4449V35.9673C79.4287 36.4877 79.5594 36.5982 80.0292 36.5982H80.3231V37.6363H79.5126C78.8633 37.6362 78.2675 37.3755 78.1835 36.5181C77.6983 37.28 76.6286 37.8004 75.3182 37.8004C73.4886 37.8003 72.3584 36.8436 72.3583 35.2857C72.3583 33.9726 73.1677 32.9156 75.4979 32.9156H78.0878V32.4605C78.0878 30.9828 77.2285 30.3658 76.0175 30.3658C74.8065 30.3658 73.9926 30.9676 73.9276 31.94H72.6483C72.7438 30.2058 74.1533 29.2633 76.0634 29.2632ZM111.896 29.2672C113.822 29.2672 115.216 30.1941 115.231 31.8326H113.922C113.887 30.8411 113.062 30.3092 111.916 30.3091C110.77 30.3091 110.036 30.7947 110.036 31.606C110.036 32.3027 110.491 32.6441 111.511 32.7896L113.181 33.065C114.67 33.3101 115.381 34.0224 115.381 35.2857C115.381 36.9088 113.906 37.8004 112.03 37.8004C109.876 37.8003 108.55 36.7937 108.516 35.2203H109.856C109.891 36.1926 110.731 36.7632 111.992 36.7632C113.253 36.7632 114.032 36.2613 114.032 35.4C114.032 34.669 113.642 34.2821 112.687 34.1519L110.987 33.8765C109.433 33.6162 108.723 32.8698 108.723 31.6373C108.723 30.1941 110.097 29.2673 111.896 29.2672ZM103.286 29.2672C105.685 29.2672 107.221 30.8909 107.221 33.3257V33.9078H100.65C100.681 35.7259 101.865 36.6636 103.336 36.6636C104.436 36.6636 105.361 36.1272 105.762 35.0591H107.121C106.651 36.6976 105.242 37.7856 103.302 37.7857C100.891 37.7857 99.2862 36.0819 99.286 33.5172C99.286 30.9522 100.887 29.2672 103.286 29.2672ZM70.578 37.6402H69.202V31.522C69.202 30.5995 69.2368 29.5579 69.3475 28.6353L65.4628 37.6402H64.118L60.2675 28.5396C60.3821 29.512 60.3817 30.5995 60.3817 31.5259V37.6441H59.0067V26.189H60.6259L64.8173 36.0699L68.9921 26.189V26.1851H70.578V37.6402ZM85.7245 29.2672C87.7644 29.2672 88.9637 30.6302 88.9637 32.7242V37.6402H87.6346V32.9996C87.6345 31.2962 86.7443 30.4849 85.4188 30.4849C83.8796 30.485 83.0547 31.5873 83.0546 33.1949V37.6402H81.7284V29.4322H82.8944L83.0389 30.6949C83.5088 29.7878 84.4641 29.2672 85.7245 29.2672ZM92.3104 37.6363H90.9852V29.4283H92.3104V37.6363ZM98.3807 26.8482H97.3759C96.5168 26.8483 96.3564 27.2842 96.3563 27.9195V29.4283H98.3807V30.6109H96.3563V37.6363H95.0116V30.6109H93.6014V29.4283H95.0155V27.855C95.0155 26.3467 95.7604 25.6802 97.2655 25.6802H98.3807V26.8482ZM118.773 29.4244H120.698V30.6265H118.773V35.3961C118.773 35.9971 118.968 36.4341 119.759 36.4341H120.683V37.6363H119.453C118.238 37.6363 117.447 36.9701 117.447 35.5767V30.6304H115.973V29.4283H116.748C117.267 29.4283 117.443 29.2022 117.443 28.6968V27.2847H118.773V29.4244ZM75.6278 33.9078C74.2183 33.9078 73.7333 34.493 73.7333 35.2701C73.7333 36.2272 74.4934 36.6978 75.5477 36.6978C76.8923 36.6978 78.0876 35.9517 78.0878 34.2828V33.9078H75.6278ZM103.286 30.355C101.911 30.355 100.825 31.1968 100.665 32.9156H105.861C105.766 31.2121 104.661 30.3551 103.286 30.355ZM92.4745 27.6636H90.8241V26.105H92.4745V27.6636Z" fill="white"/>
<path d="M52.7319 52.9285H36.2975C34.2114 52.9285 32.296 51.7731 31.3213 49.926C29.2125 45.9277 23.5004 45.9201 21.3764 49.907L21.3575 49.945C20.3789 51.7845 18.4673 52.9323 16.3889 52.9323H0V0.0877991H9.52003C11.9512 0.0877991 14.1738 1.47885 15.2396 3.66803L20.7355 14.9522C23.0453 19.6917 29.77 19.7373 32.1405 15.0244L37.8867 3.59582C38.9676 1.44464 41.1675 0.0877991 43.5722 0.0877991H52.7319V52.9285Z" fill="white"/>
</svg>
