<?xml version="1.0" encoding="UTF-8" standalone="no"?>
<!-- Generator: Adobe Illustrator 15.0.0, SVG Export Plug-In . SVG Version: 6.00 Build 0)  -->

<svg
   xmlns:dc="http://purl.org/dc/elements/1.1/"
   xmlns:cc="http://creativecommons.org/ns#"
   xmlns:rdf="http://www.w3.org/1999/02/22-rdf-syntax-ns#"
   xmlns:svg="http://www.w3.org/2000/svg"
   xmlns="http://www.w3.org/2000/svg"
   xmlns:sodipodi="http://sodipodi.sourceforge.net/DTD/sodipodi-0.dtd"
   xmlns:inkscape="http://www.inkscape.org/namespaces/inkscape"
   version="1.1"
   id="Layer_1"
   x="0px"
   y="0px"
   width="214.86949"
   height="79.484116"
   viewBox="0 0 214.86949 79.484116"
   enable-background="new 0 0 612 792"
   xml:space="preserve"
   inkscape:version="0.48.2 r9819"
   sodipodi:docname="wabtec.svg"><metadata
   id="metadata53"><rdf:RDF><cc:Work
       rdf:about=""><dc:format>image/svg+xml</dc:format><dc:type
         rdf:resource="http://purl.org/dc/dcmitype/StillImage" /></cc:Work></rdf:RDF></metadata><defs
   id="defs51" /><sodipodi:namedview
   pagecolor="#ffffff"
   bordercolor="#666666"
   borderopacity="1"
   objecttolerance="10"
   gridtolerance="10"
   guidetolerance="10"
   inkscape:pageopacity="0"
   inkscape:pageshadow="2"
   inkscape:window-width="640"
   inkscape:window-height="480"
   id="namedview49"
   showgrid="false"
   fit-margin-top="5"
   fit-margin-left="5"
   fit-margin-right="5"
   fit-margin-bottom="5"
   inkscape:zoom="1.1919192"
   inkscape:cx="69.999996"
   inkscape:cy="52.684117"
   inkscape:window-x="0"
   inkscape:window-y="0"
   inkscape:window-maximized="0"
   inkscape:current-layer="Layer_1" />
<polyline
   clip-rule="evenodd"
   points="289.36,387.28 295,387.28 294.28,397.48 298,387.28 304.6,387.28   304,397.48 307.48,387.28 313.24,387.28 306.28,403.359 299.44,403.359 300.16,392.92 300.04,392.92 296.32,403.359 289.36,403.359   289.36,387.28 "
   id="polyline3"
   transform="matrix(1.5734984,0,0,1.5734984,-374.21311,-583.8031)"
   style="fill-rule:evenodd" />
<path
   clip-rule="evenodd"
   d="m 124.33412,39.931659 h -3.39876 l -1.13291,0.18882 -2.83231,0.56646 -2.26426,1.13292 -0.56803,0.37764 -1.13134,1.1345 -0.37765,0.56488 -0.37763,0.75528 -0.18882,0.56488 -0.18883,0.9441 -0.18882,1.13449 v 1.13293 l 0.37765,0.94567 0.56645,0.75371 0.75371,0.56645 0.94567,0.56489 1.13292,0.18882 h 2.8323 l 0.75528,-0.18882 0.56488,-0.18725 0.75528,-0.37764 0.56489,-0.37764 0.75528,-0.56488 0.56488,-0.56646 -0.18724,1.69781 h 7.55278 l 2.45466,-11.89565 0.18883,-0.75528 0.18882,-0.56647 v -0.75528 l -0.56489,-1.69937 -0.19039,-0.37764 -0.56489,-0.37764 -0.37764,-0.37764 -0.56488,-0.37764 -0.75528,-0.18882 -0.75528,-0.37764 -0.9441,-0.18882 h -0.9441 l -1.13449,-0.18882 h -2.8323 l -0.7537,0.18882 h -0.94568 l -2.26583,0.56646 -0.75371,0.37764 -0.56646,0.37764 -0.7537,0.37764 -0.56647,0.56646 -0.56488,0.37764 -0.37764,0.75528 -0.56489,0.56645 -0.37764,0.75528 -0.19039,0.9441 h 7.17672 v -0.56645 l 0.37765,-0.75528 0.37763,-0.18882 0.18725,-0.18883 h 0.37764 l 0.37764,-0.18881 h 0.75528 l 0.37764,0.18881 h 0.18724 l 0.37765,0.37765 v 0.9441 l -0.38079,1.69937 m -1.13292,4.7205 v 0.56488 l -0.18882,0.56647 -0.18882,0.37606 -0.56646,0.56646 -0.56489,0.18882 -0.37763,0.18882 h -1.32175 l -0.37763,-0.18882 -0.18725,-0.37764 -0.1904,-0.18724 v -1.1345 l 0.1904,-0.18724 v -0.37764 l 0.37607,-0.37764 0.18881,-0.37764 0.5649,-0.18883 0.37763,-0.18881 0.75528,-0.18725 h 1.88663 l -0.37607,1.32174 z"
   id="path5"
   inkscape:connector-curvature="0"
   style="fill-rule:evenodd" />
<path
   clip-rule="evenodd"
   d="m 131.31888,50.881639 h 8.11925 l 0.56646,-1.88663 0.37764,0.56489 1.13292,1.13449 0.56646,0.37764 1.51056,0.37607 h 3.02269 l 0.75528,-0.18882 0.56488,-0.37764 2.26426,-1.13135 0.56804,-0.75528 0.56803,-0.56645 1.13449,-1.51056 0.37606,-0.9441 0.56647,-0.75528 0.37764,-1.13292 0.18725,-0.94567 0.37763,-1.13292 0.18882,-1.32174 0.18882,-1.13292 v -1.8882 l -0.37764,-1.51056 -0.37763,-0.75528 -0.75371,-1.13291 -0.37765,-0.37765 -0.56645,-0.37763 -1.13292,-0.37765 -0.7537,-0.18881 -0.56647,-0.18882 h -1.51056 l -0.75528,0.18882 -2.26426,0.56646 -0.56646,0.37763 -1.51056,1.13293 2.07702,-9.44099 h -8.49689 l -5.48049,25.30185 m 10.57548,-8.68414 v -0.56488 l 0.18882,-0.56646 v -0.56646 l 0.18882,-0.37764 v -0.18883 l 0.18724,-0.18881 v -0.37764 l 0.1904,-0.37764 0.7537,-0.75528 0.37765,-0.18882 0.18881,-0.18882 h 1.32175 l 0.37763,0.18882 0.37765,0.37764 v 0.56646 l 0.18724,0.56646 -0.18724,0.75528 v 0.75528 l -0.1904,1.13291 -0.37764,0.75528 -0.18724,0.9441 -0.18882,0.75528 -0.75371,1.13292 -0.37764,0.37607 -1.13449,0.37763 h -0.37765 l -0.18724,-0.18724 h -0.37764 v -0.19039 h -0.18882 l -0.18881,-0.18725 v -0.18882 l -0.18725,-0.18882 v -1.32174 l 0.18725,-0.37764 v -0.56488 l 0.37763,-1.13607 z"
   id="path7"
   inkscape:connector-curvature="0"
   style="fill-rule:evenodd" />
<polyline
   clip-rule="evenodd"
   points="337.721,395.56 336.279,395.56 337,392.2 338.439,392.2 338.8,390.4   344.68,388.48 343.84,392.2 346.359,392.2 345.641,395.56 343.24,395.56 342.4,398.92 342.4,399.76 342.52,400 342.88,400   343.12,400.12 343.6,400.12 343.721,400 344.439,400 343.721,403.24 342.279,403.6 341.8,403.6 341.32,403.72 339.279,403.72   338.561,403.6 337.359,403.12 336.88,402.76 336.641,402.16 336.52,401.439 336.641,400.6 337.721,395.56 "
   id="polyline9"
   transform="matrix(1.5734984,0,0,1.5734984,-374.21311,-583.8031)"
   style="fill-rule:evenodd" />
<path
   clip-rule="evenodd"
   d="m 180.79281,45.218619 -0.19039,0.56645 -0.37764,0.37607 -0.18725,0.37765 -0.75527,0.37763 -0.37764,0.18883 h -1.32175 l -0.37763,-0.18883 -0.37607,-0.18882 -0.37764,-0.37606 v -0.37764 l -0.18882,-0.37764 v -0.75528 l 0.37765,-1.13292 h 12.08446 l 0.37764,-1.13292 0.18882,-1.13449 v -3.01955 l -0.18882,-0.94409 -0.18882,-0.75528 -0.75371,-1.51056 -0.56645,-0.56646 -0.56646,-0.37764 -0.75371,-0.56646 -0.94567,-0.18882 -0.75371,-0.37764 -1.13292,-0.18882 -1.13449,-0.18882 h -2.26426 l -1.1345,0.18882 -1.13292,0.18882 -0.9441,0.18882 -1.13291,0.37764 -0.94568,0.37764 -0.94567,0.56646 -1.50899,1.13292 -1.32173,1.32174 -0.75528,0.9441 -0.37764,0.9441 -0.56489,0.94409 -0.19039,0.9441 -0.37607,1.13293 -0.18882,1.32331 -0.18881,1.13291 0.18881,1.13292 v 0.9441 l 0.37764,0.94567 0.18725,0.75371 0.56803,0.56645 0.56174,0.75371 0.56488,0.37764 0.56804,0.56646 0.75371,0.18882 0.7537,0.37764 1.8882,0.37607 h 4.15404 l 1.13449,-0.18882 1.88663,-0.37764 0.75528,-0.18725 0.94409,-0.37764 0.75528,-0.37764 0.56489,-0.37764 0.75528,-0.56488 0.94409,-0.94411 0.56647,-0.75527 0.37763,-0.56646 0.37607,-0.75371 0.19039,-0.75528 h -7.35768 m -3.39875,-5.2901 v -0.18881 l 0.37606,-1.13293 1.13293,-1.13291 0.75528,-0.37764 h 1.13448 l 0.75371,0.37764 0.37607,0.75528 v 1.69937 h -4.52853 z"
   id="path11"
   inkscape:connector-curvature="0"
   style="fill-rule:evenodd" />
<polyline
   clip-rule="evenodd"
   points="366.04,396.76 366.16,396.28 366.16,395.2 366.04,394.96 365.68,394.6   365.08,394.6 364.84,394.72 364.48,394.96 364.24,395.2 364,395.68 363.76,396.28 363.52,397 363.279,397.96 363.16,398.8   363.04,399.52 363.04,400.12 363.16,400.48 363.279,400.72 363.4,400.84 363.641,400.96 364.24,400.96 364.48,400.84 364.84,400.72   364.96,400.48 365.2,400.12 365.439,399.4 365.68,398.92 370.721,398.92 370.48,399.52 370.359,400 369.88,400.96 369.52,401.439   368.8,402.16 368.32,402.52 367.359,403 366.16,403.48 364.721,403.72 361.84,403.72 361.24,403.6 360.76,403.48 360.16,403.24   359.68,403.12 359.32,402.76 358.84,402.52 358.48,402.04 358.24,401.68 358,401.2 357.76,400 357.76,399.28 357.88,398.561   358,397.72 358.12,397 358.6,395.8 359.32,394.6 359.8,394.24 360.641,393.4 361.84,392.68 362.439,392.44 363.04,392.2   363.641,392.08 364.359,391.96 365.08,391.84 366.641,391.84 367.359,391.96 368.561,392.2 369.04,392.44 369.52,392.68 370,392.92   370.6,393.52 370.84,393.88 370.96,394.36 371.08,394.72 371.2,395.2 371.2,396.28 371.08,396.76 366.04,396.76 "
   id="polyline13"
   transform="matrix(1.5734984,0,0,1.5734984,-374.21311,-583.8031)"
   style="fill-rule:evenodd" />
<polyline
   clip-rule="evenodd"
   points="292,410.2 292,410.08 291.88,409.96 291.88,409.84 291.76,409.6   291.64,409.6 291.4,409.48 290.68,409.48 290.32,409.6 289.96,409.84 289.72,410.08 289.48,410.439 289.12,411.52 289.12,412.6   289.48,413.32 289.84,413.439 290.8,413.439 291.04,413.2 291.28,413.08 291.28,412.84 291.4,412.72 292.24,412.72 292,412.96   291.88,413.2 291.64,413.561 291.4,413.68 291.04,413.8 290.68,414.04 289.48,414.04 289,413.92 288.76,413.68 288.52,413.32   288.4,412.96 288.28,412.48 288.4,412 288.4,411.52 288.52,411.04 289,410.08 289.36,409.6 289.72,409.359 290.08,409   290.68,408.88 291.88,408.88 292.12,409 292.36,409.24 292.6,409.359 292.72,409.6 292.72,410.2 292,410.2 "
   id="polyline15"
   transform="matrix(1.5734984,0,0,1.5734984,-374.21311,-583.8031)"
   style="fill-rule:evenodd" />
<path
   clip-rule="evenodd"
   d="m 89.780096,63.722959 -0.18883,0.75528 v 0.75527 l 0.18883,0.75372 0.18881,0.56646 0.56647,0.56488 0.56645,0.37764 0.56646,0.18882 h 1.69938 l 0.9441,-0.18882 0.75528,-0.37764 0.56646,-0.56488 0.37763,-0.56646 0.56647,-0.75372 0.18881,-0.75527 0.37765,-0.75528 v -2.45466 l -0.75528,-1.13292 -0.56646,-0.37763 -0.56647,-0.18883 h -1.88819 l -0.75528,0.18883 -0.75528,0.37763 -1.13292,1.13292 -0.75528,1.51056 -0.18881,0.9441 m 1.13291,0 0.18882,-0.75371 0.18883,-0.56646 0.37763,-0.56488 0.18882,-0.37765 0.37764,-0.37763 0.56646,-0.37765 0.56646,-0.18723 h 1.32174 l 0.56645,0.18723 0.75528,0.75528 v 2.26427 l -0.37763,1.1345 -0.37765,0.56488 -0.18881,0.37764 -0.56647,0.37764 -0.37763,0.37764 -0.56646,0.18724 h -1.51056 l -0.56646,-0.18724 -0.18881,-0.37764 -0.37765,-0.37764 v -0.37764 l -0.18882,-0.56488 0.18882,-0.56646 v -0.56961 z"
   id="path17"
   inkscape:connector-curvature="0"
   style="fill-rule:evenodd" />
<path
   clip-rule="evenodd"
   d="m 103.94158,63.913349 0.37764,0.18725 h 0.56646 l 0.18881,0.37764 h 0.18883 v 3.20993 h 1.13291 v -3.58757 l -0.37763,-0.37764 h -0.18883 l -0.37763,-0.18724 h 0.37763 l 0.75528,-0.37765 0.18883,-0.18882 0.18882,-0.37764 0.18881,-0.18882 0.18882,-0.37763 v -0.37922 l 0.18883,-0.56646 -0.56646,-1.13291 h -0.37765 l -0.37763,-0.18882 h -0.56647 l -0.56646,-0.18883 h -2.83229 l -1.69938,8.11925 h 1.13292 l 0.75528,-3.77482 h 1.51056 m -0.75528,-3.40033 h 1.88819 l 0.37765,0.18725 h 0.18881 l 0.37765,0.18882 0.18882,0.18882 v 0.9441 l -0.18882,0.1904 v 0.18723 l -0.37765,0.37765 -0.37763,0.18882 h -2.64347 l 0.56645,-2.45309 z"
   id="path19"
   inkscape:connector-curvature="0"
   style="fill-rule:evenodd" />
<path
   clip-rule="evenodd"
   d="m 110.7391,67.688169 h 1.13291 l 0.75528,-3.58757 h 2.07701 l 0.37607,-0.18725 1.13292,-0.37763 0.37764,-0.18883 0.37764,-0.37764 0.56489,-1.69937 -0.18725,-0.56646 -0.19039,-0.37764 -0.18725,-0.18725 -0.37764,-0.18881 -0.56488,-0.18883 -0.37764,-0.18882 h -3.21152 l -1.69779,8.1161 m 2.07701,-4.53167 0.56646,-2.64348 h 1.8882 l 0.37764,0.18725 h 0.18724 l 0.37764,0.37764 v 0.75528 l -0.37764,0.7537 -0.18724,0.18883 -0.37764,0.18882 -0.18882,0.18881 h -2.26584 z"
   id="path21"
   inkscape:connector-curvature="0"
   style="fill-rule:evenodd" />
<path
   clip-rule="evenodd"
   d="m 120.74811,63.722959 -0.19038,0.75528 v 0.75527 l 0.19038,0.75372 0.18725,0.56646 0.56646,0.56488 0.56647,0.37764 0.56488,0.18882 h 1.69938 l 0.94409,-0.18882 0.75528,-0.37764 0.56489,-0.56488 0.37764,-0.56646 0.56645,-0.75372 0.19197,-0.75527 0.37764,-0.75528 v -2.45466 l -0.75528,-1.13292 -0.56646,-0.37763 -0.56645,-0.18883 h -1.8882 l -0.75528,0.18883 -0.75371,0.37763 -1.13292,1.13292 -0.75528,1.51056 -0.18882,0.9441 m 1.12978,0 0.1904,-0.75371 0.37763,-1.13292 0.75371,-0.75527 0.56645,-0.37764 0.5649,-0.18725 h 1.32173 l 0.56646,0.18725 0.7537,0.75528 v 2.26426 l -0.37763,1.13449 -0.37607,0.56489 -0.18882,0.37764 -0.56489,0.37763 -0.37763,0.37765 -0.56647,0.18725 h -1.50898 l -0.56489,-0.18725 -0.19039,-0.37765 -0.37764,-0.37763 -0.18725,-0.37764 v -0.56489 l 0.18725,-0.56645 v -0.56804 z"
   id="path23"
   inkscape:connector-curvature="0"
   style="fill-rule:evenodd" />
<path
   clip-rule="evenodd"
   d="m 134.9096,63.913349 0.37607,0.18725 h 0.56646 l 0.18724,0.37764 h 0.1904 v 3.20993 h 1.13291 v -3.58757 l -0.37763,-0.37764 h -0.18882 l -0.37765,-0.18724 h 0.37765 l 0.75528,-0.37765 0.18724,-0.18882 0.19039,-0.37764 0.18725,-0.18882 0.1904,-0.37763 v -0.37922 l 0.18724,-0.56646 -0.56489,-1.13291 h -0.37763 l -0.37765,-0.18882 h -0.56488 l -0.56803,-0.18883 h -2.83072 l -1.69938,8.11925 h 1.13291 l 0.7537,-3.77482 h 1.51214 m -0.75686,-3.40033 h 1.69939 l 0.56488,0.18725 h 0.19039 l 0.37608,0.18882 0.18881,0.18882 v 0.9441 l -0.18881,0.1904 v 0.18723 l -0.18883,0.18883 -0.37764,0.18882 -0.18724,0.18882 h -2.64348 l 0.56645,-2.45309 z"
   id="path25"
   inkscape:connector-curvature="0"
   style="fill-rule:evenodd" />
<path
   clip-rule="evenodd"
   d="m 141.89436,67.688169 1.32174,-2.07701 h 3.77639 l 0.37765,2.07701 h 1.13291 l -1.51056,-8.11925 h -1.13448 l -5.09814,8.11925 h 1.13449 m 4.34285,-6.98632 0.56646,3.96678 h -3.02111 l 2.45465,-3.96678 z"
   id="path27"
   inkscape:connector-curvature="0"
   style="fill-rule:evenodd" />
<polyline
   clip-rule="evenodd"
   points="336.279,409.48 334.6,409.48 334.721,408.88 338.8,408.88 338.68,409.48   337,409.48 336.04,414.04 335.32,414.04 336.279,409.48 "
   id="polyline29"
   transform="matrix(1.5734984,0,0,1.5734984,-374.21311,-583.8031)"
   style="fill-rule:evenodd" />
<polyline
   clip-rule="evenodd"
   points="340.24,414.04 341.32,408.88 342.04,408.88 340.96,414.04 340.24,414.04   "
   id="polyline31"
   transform="matrix(1.5734984,0,0,1.5734984,-374.21311,-583.8031)"
   style="fill-rule:evenodd" />
<path
   clip-rule="evenodd"
   d="m 167.57386,63.722959 -0.18883,0.75528 v 0.75527 l 0.18883,0.75372 0.18724,0.56646 0.37764,0.56488 0.56646,0.37764 0.7537,0.18882 h 1.69938 l 0.75528,-0.18882 0.75528,-0.37764 1.13134,-1.13291 0.75528,-1.51056 0.18882,-0.75528 0.18883,-0.9441 v -0.75528 l -0.18883,-0.75371 -0.18882,-0.56646 -0.37763,-0.56489 -0.56174,-0.37763 -0.75528,-0.18883 h -1.69938 l -0.9441,0.18883 -0.56488,0.37763 -1.1345,1.13292 -0.75528,1.51056 -0.18881,0.9441 m 1.13291,0 0.18882,-0.75371 0.37764,-1.13292 0.7537,-0.75527 0.56647,-0.37764 0.56488,-0.18725 h 1.32174 l 0.56646,0.18725 0.37764,0.37764 0.37606,0.75527 v 1.13292 l -0.18724,0.75371 -0.56646,1.69938 -0.75371,0.75527 -0.56646,0.37765 -0.56645,0.18725 h -1.32174 l -0.56489,-0.18725 -0.37764,-0.37765 -0.37764,-0.75527 v -1.13292 l 0.18882,-0.56646 z"
   id="path33"
   inkscape:connector-curvature="0"
   style="fill-rule:evenodd" />
<polyline
   clip-rule="evenodd"
   points="356.439,408.88 355.359,414.04 354.4,414.04 352.84,409.72   351.88,414.04 351.279,414.04 352.359,408.88 353.32,408.88 354.88,413.08 355.721,408.88 356.439,408.88 "
   id="polyline35"
   transform="matrix(1.5734984,0,0,1.5734984,-374.21311,-583.8031)"
   style="fill-rule:evenodd" />
<polyline
   clip-rule="evenodd"
   points="256.96,413.561 257.92,413.68 258.76,413.8   259.72,413.92 261.52,413.92 262.36,413.8 263.2,413.8 264.04,413.68 265,413.439 265.72,413.2 266.56,412.96 268.24,412.24   269.68,411.52 270.52,411.04 271.12,410.561 271.84,410.08 272.56,409.48 274.36,407.68 274.84,406.96 275.44,406.24 276.4,404.8   276.76,404.08 277.48,402.4 277.72,401.561 278.08,400.6 278.2,399.76 278.44,398.8 278.56,397.96 278.68,397 278.68,395.32   278.56,394.36 278.2,391.84 277.96,391 277.6,390.16 277.36,389.32 277,388.48 276.64,387.76 276.16,387.04 275.8,386.32   275.2,385.6 274.24,384.16 273.04,382.96 272.32,382.36 271.72,381.88 271,381.28 270.28,380.8 269.44,380.44 268.72,379.96   267.04,379.24 265.36,378.76 264.4,378.52 265.36,374.2 266.44,374.44 267.52,374.8 268.6,375.16 269.68,375.64 270.64,376   271.6,376.6 272.56,377.08 273.52,377.68 274.36,378.4 275.2,379 276.04,379.72 276.76,380.56 277.48,381.28 278.2,382.12   278.8,382.96 279.4,383.92 280,384.76 281.44,387.64 281.8,388.72 282.16,389.68 282.88,392.92 283,394 283,395.08 283.12,396.16   283,397.359 282.76,399.52 282.64,400.72 282.28,401.8 282.04,402.88 281.68,403.96 281.2,404.92 280.72,406 280.24,406.96   279.64,407.92 279.04,408.76 278.44,409.72 277.72,410.561 277,411.28 276.28,412.12 274.6,413.561 272.92,414.76 271.96,415.359   270.04,416.32 269.08,416.68 268.12,417.16 267.04,417.4 265.96,417.76 264.88,418 263.92,418.12 262.72,418.24 261.64,418.359   259.48,418.359 258.28,418.24 257.2,418.12 256,417.88 256.96,413.561 "
   id="polyline37"
   transform="matrix(1.5734984,0,0,1.5734984,-374.21311,-583.8031)"
   style="fill:#ed2027;fill-rule:evenodd" />
<polyline
   clip-rule="evenodd"
   points="241.48,391.96 241.24,392.92 241.12,393.88 241,394.96   241,396.88 241.36,399.76 241.6,400.72 241.84,401.561 242.08,402.52 242.44,403.359 242.8,404.32 243.28,405.16 243.64,405.88   244.24,406.72 244.72,407.561 246.52,409.72 247.24,410.32 247.96,411.04 248.68,411.641 249.4,412.12 250.24,412.72 251.92,413.68   252.76,414.04 254.68,414.76 257.56,415.48 258.64,415.6 259.6,415.72 261.52,415.72 264.4,415.359 266.32,414.88 267.16,414.641   268.12,414.28 268.96,413.92 269.8,413.439 270.64,413.08 271.48,412.48 272.2,412 274.36,410.2 275.08,409.48 276.88,407.32   278.8,403.96 279.16,403 279.4,402.04 279.76,401.08 280,400.12 280.12,399.16 280.36,398.08 280.36,394.24 280.12,392.32   279.64,390.4 279.28,389.56 279.04,388.72 278.56,387.76 278.2,386.92 277.72,386.08 277.24,385.36 276.64,384.52 276.16,383.8   275.56,383.08 273.52,381.04 272.8,380.44 271.96,379.84 269.44,378.4 268.6,378.04 266.68,377.32 265.72,377.08 264.76,376.84   264.4,378.52 265.36,378.76 267.04,379.24 268.72,379.96 269.44,380.44 270.28,380.8 271,381.28 271.72,381.88 272.32,382.36   273.04,382.96 274.24,384.16 275.2,385.6 275.8,386.32 276.16,387.04 276.64,387.76 277,388.48 277.36,389.32 277.6,390.16   277.96,391 278.2,391.84 278.56,394.36 278.68,395.32 278.68,397 278.56,397.96 278.44,398.8 278.2,399.76 278.08,400.6   277.72,401.561 277.48,402.4 276.76,404.08 276.4,404.8 275.44,406.24 274.84,406.96 274.36,407.68 272.56,409.48 271.84,410.08   271.12,410.561 270.52,411.04 269.68,411.52 268.24,412.24 266.56,412.96 265.72,413.2 265,413.439 264.04,413.68 263.2,413.8   262.36,413.8 261.52,413.92 259.72,413.92 258.76,413.8 257.92,413.68 256.96,413.561 256.12,413.32 255.16,413.08 254.32,412.72   253.48,412.48 252.64,412.12 249.76,410.2 249.04,409.6 248.44,409.12 247.84,408.52 247.24,407.8 246.64,407.2 245.2,405.04   244.84,404.32 244.36,403.48 244,402.76 243.04,399.4 242.8,397.72 242.8,394.12 242.92,393.28 243.16,392.32 241.48,391.96 "
   id="polyline39"
   transform="matrix(1.5734984,0,0,1.5734984,-374.21311,-583.8031)"
   style="fill:#ed2027;fill-rule:evenodd" />
<polyline
   clip-rule="evenodd"
   points="257.92,409.24 259.24,409.48 262,409.48 263.2,409.24   264.52,409 266.92,408.04 268.12,407.32 269.08,406.6 270.04,405.76 271,404.8 271.84,403.72 272.56,402.641 273.04,401.439   273.52,400.12 273.88,398.8 274.12,397.48 274.24,396.16 274,393.52 273.64,392.2 273.28,391 272.68,389.8 272.08,388.72   271.24,387.64 270.4,386.68 269.44,385.72 268.48,385 267.28,384.28 266.08,383.68 264.88,383.2 263.56,382.84 262.12,382.6   260.8,382.48 259.48,382.6 258.16,382.84 256.84,383.08 254.44,384.04 252.28,385.48 251.32,386.32 250.48,387.28 249.64,388.36   248.92,389.44 248.32,390.64 247.84,391.84 247.48,393.28 245.8,392.8 245.92,392.08 246.4,390.64 246.76,389.92 247,389.2   247.36,388.6 247.72,387.88 248.2,387.28 248.56,386.68 249.04,386.08 250.6,384.52 251.2,384.04 251.8,383.68 252.4,383.2   253.6,382.48 254.32,382.12 255.04,381.88 255.64,381.64 257.08,381.16 258.52,380.92 259.36,380.8 262.36,380.8 263.08,380.92   263.92,381.04 266.8,382 268.24,382.72 268.84,383.08 269.44,383.56 270.04,383.92 270.64,384.4 272.2,385.96 273.16,387.16   274.24,388.96 274.6,389.68 274.84,390.28 275.2,391 275.32,391.72 275.56,392.44 276.04,395.32 276.04,396.16 275.92,396.88   275.92,397.6 275.8,398.439 275.68,399.16 275.44,400 274.72,402.16 274.36,402.76 273.64,404.2 273.28,404.8 272.8,405.4   272.32,405.88 271.84,406.48 271.36,406.96 270.16,407.92 269.68,408.4 269.08,408.88 268.36,409.24 267.76,409.6 267.04,409.84   266.44,410.2 265.72,410.439 265,410.68 264.28,410.92 262.12,411.28 259.84,411.28 259.12,411.16 258.28,411.16 257.56,410.92   257.92,409.24 "
   id="polyline41"
   transform="matrix(1.5734984,0,0,1.5734984,-374.21311,-583.8031)"
   style="fill:#ed2027;fill-rule:evenodd" />
<polyline
   clip-rule="evenodd"
   points="271.36,398.32 271.48,397.24 271.6,396.04 271.48,395.08   271.36,394 271.12,392.92 270.76,391.96 270.28,391 269.8,390.16 269.2,389.32 268.48,388.48 267.76,387.76 266.92,387.16   265.96,386.56 265,386.08 264.04,385.72 261.88,385.24 260.8,385.12 258.64,385.36 257.56,385.6 256.6,385.96 255.64,386.44   254.8,386.92 253.96,387.52 253.12,388.24 252.4,388.96 251.8,389.8 251.2,390.76 250.72,391.72 250.36,392.68 250.12,393.76   245.8,392.8 245.92,392.08 246.4,390.64 246.76,389.92 247,389.2 247.36,388.6 247.72,387.88 248.2,387.28 248.56,386.68   249.04,386.08 250.6,384.52 251.2,384.04 251.8,383.68 252.4,383.2 253.6,382.48 254.32,382.12 255.04,381.88 255.64,381.64   257.08,381.16 258.52,380.92 259.36,380.8 262.36,380.8 263.08,380.92 263.92,381.04 266.8,382 268.24,382.72 268.84,383.08   269.44,383.56 270.04,383.92 270.64,384.4 272.2,385.96 273.16,387.16 274.24,388.96 274.6,389.68 274.84,390.28 275.2,391   275.32,391.72 275.56,392.44 276.04,395.32 276.04,396.16 275.92,396.88 275.92,397.6 275.8,398.439 275.68,399.16 271.36,398.32   "
   id="polyline43"
   transform="matrix(1.5734984,0,0,1.5734984,-374.21311,-583.8031)"
   style="fill:#ed2027;fill-rule:evenodd" />
<polyline
   clip-rule="evenodd"
   points="259.36,402.28 258.76,402.16 257.56,401.68   256.96,401.32 256.48,400.96 256.12,400.48 255.64,400 255.28,399.52 255.04,399.04 254.56,397.84 254.32,396.64 254.32,395.32   254.56,394.12 255.04,392.92 255.4,392.32 255.76,391.84 256.24,391.36 257.68,390.28 258.28,390.04 258.88,389.92 259.48,389.68   260.08,389.68 260.68,389.56 261.4,389.68 262,389.8 262.72,389.92 263.92,390.4 264.88,391.12 265.36,391.6 266.44,393.04   266.92,394.24 267.16,395.44 267.16,396.04 267.04,396.64 267.04,397.359 266.92,397.72 266.8,397.96 266.68,398.32 266.56,398.561   266.44,398.92 266.2,399.4 265.96,399.641 265.72,400 265.6,400.24 265.36,400.48 265.12,400.6 264.64,401.08 264.4,401.2   264.16,401.439 265.12,402.88 265.48,402.641 265.84,402.52 266.08,402.16 266.44,401.92 266.68,401.68 266.92,401.32   267.16,401.08 267.88,400 268,399.641 268.24,399.28 268.48,398.561 268.6,398.08 268.72,397.72 268.96,396.04 268.84,395.32   268.72,394.48 268.6,393.76 268.36,392.92 268,392.2 267.64,391.6 267.16,390.88 266.08,389.8 265.36,389.32 264.76,388.84   264.04,388.48 263.2,388.24 262.48,388 261.64,387.88 259.96,387.88 259.12,388 258.4,388.12 257.68,388.36 256.96,388.72   256.24,389.2 255.04,390.16 254.44,390.76 253.96,391.36 253.6,391.96 253.12,392.8 252.88,393.52 252.64,394.36 252.52,395.2   252.52,396.76 252.64,397.6 253.12,399.04 253.84,400.48 254.8,401.68 255.4,402.28 256,402.76 256.72,403.24 257.44,403.6   258.16,403.84 259,404.08 259.36,402.28 "
   id="polyline45"
   transform="matrix(1.5734984,0,0,1.5734984,-374.21311,-583.8031)"
   style="fill:#ed2027;fill-rule:evenodd" />
<polyline
   clip-rule="evenodd"
   points="259.96,399.76 259.24,399.52 258.88,399.28   258.52,399.16 258.04,398.68 257.68,398.439 257.56,398.08 257.32,397.84 256.96,396.76 256.96,395.2 257.2,394.48 257.44,394.24   257.56,393.88 257.8,393.52 258.04,393.28 258.4,393.04 258.64,392.8 259,392.68 259.36,392.56 259.6,392.44 259.96,392.32   260.32,392.32 260.68,392.2 261.16,392.32 261.52,392.32 262.48,388 261.64,387.88 259.96,387.88 259.12,388 258.4,388.12   257.68,388.36 256.96,388.72 256.24,389.2 255.04,390.16 254.44,390.76 253.96,391.36 253.6,391.96 253.12,392.8 252.88,393.52   252.64,394.36 252.52,395.2 252.52,396.76 252.64,397.6 253.12,399.04 253.84,400.48 254.8,401.68 255.4,402.28 256,402.76   256.72,403.24 257.44,403.6 258.16,403.84 259,404.08 259.96,399.76 "
   id="polyline47"
   transform="matrix(1.5734984,0,0,1.5734984,-374.21311,-583.8031)"
   style="fill:#ed2027;fill-rule:evenodd" />
</svg>